<?xml version="1.0" encoding="UTF-8"?>
<svg xmlns="http://www.w3.org/2000/svg" version="1.1" viewBox="0 0 1081.1 664.9">
  <defs>
    <style>
      .cls-1 {
        font-size: 10px;
      }

      .cls-1, .cls-2, .cls-3, .cls-4, .cls-5, .cls-6, .cls-7, .cls-8, .cls-9, .cls-10, .cls-11, .cls-12, .cls-13 {
        isolation: isolate;
      }

      .cls-1, .cls-14, .cls-4, .cls-7, .cls-11 {
        fill: #000;
      }

      .cls-1, .cls-7, .cls-9 {
        font-family: ArialMT, Arial;
      }

      .cls-2 {
        stroke-width: 166.1px;
      }

      .cls-2, .cls-3, .cls-5, .cls-6, .cls-8, .cls-13 {
        fill: none;
        mix-blend-mode: multiply;
      }

      .cls-2, .cls-13 {
        stroke: #417505;
      }

      .cls-14 {
        stroke-width: 0px;
      }

      .cls-3 {
        stroke-width: 31.6px;
      }

      .cls-3, .cls-6 {
        stroke: #7ed321;
      }

      .cls-4, .cls-7, .cls-9, .cls-12 {
        font-size: 13px;
      }

      .cls-4, .cls-11, .cls-12 {
        font-family: Arial-BoldMT, Arial;
        font-weight: 700;
      }

      .cls-5 {
        stroke-width: 19px;
      }

      .cls-5, .cls-8 {
        stroke: #b8e986;
      }

      .cls-6 {
        stroke-width: 226.6px;
      }

      .cls-8 {
        stroke-width: 207.5px;
      }

      .cls-9, .cls-12 {
        fill: #fff;
      }

      .cls-11 {
        font-size: 18px;
      }

      .cls-13 {
        stroke-width: 258.1px;
      }
    </style>
  </defs>
  <g class="cls-10">
    <g id="Layer_1" data-name="Layer 1">
      <g id="viz">
        <g>
          <rect class="cls-14" x="134.7" y="74.9" width="5" height="424.2"/>
          <rect class="cls-14" x="394.7" y="488.8" width="5" height="166.1"/>
          <rect class="cls-14" x="394.7" y="218.4" width="5" height="258.1"/>
          <rect class="cls-14" x="654.7" y="258.7" width="5" height="226.6"/>
          <rect class="cls-14" x="654.7" y="497.5" width="5" height="31.6"/>
          <rect class="cls-14" x="914.7" y="486" width="5" height="19"/>
          <rect class="cls-14" x="914.7" y="266.2" width="5" height="207.5"/>
        </g>
        <g>
          <path class="cls-2" d="M139.7,416.1c127.5,0,127.5,155.8,255,155.8"/>
          <path class="cls-13" d="M139.7,204c127.5,0,127.5,143.5,255,143.5"/>
          <path class="cls-6" d="M399.7,331.6c127.5,0,127.5,40.3,255,40.3"/>
          <path class="cls-3" d="M399.7,460.7c127.5,0,127.5,52.6,255,52.6"/>
          <path class="cls-5" d="M659.7,475.7c127.5,0,127.5,19.8,255,19.8"/>
          <path class="cls-8" d="M659.7,362.4c127.5,0,127.5,7.5,255,7.5"/>
        </g>
        <g>
          <g class="cls-10">
            <text class="cls-4" transform="translate(20.5 281.5)"><tspan x="0" y="0">Global Population</tspan></text>
            <text class="cls-7" transform="translate(76.8 297.5)"><tspan x="0" y="0">7.9 billion</tspan></text>
          </g>
          <g class="cls-10">
            <text class="cls-4" transform="translate(403.7 566.3)"><tspan x="0" y="0">No Regular Internet Access</tspan></text>
            <text class="cls-7" transform="translate(403.7 578.3)"><tspan x="0" y="0">3.1 billion</tspan></text>
          </g>
          <g class="cls-10">
            <text class="cls-12" transform="translate(241.9 341.9)"><tspan x="0" y="0">Regular Internet Access</tspan></text>
            <text class="cls-9" transform="translate(335.8 357.9)"><tspan x="0" y="0">4.8 billion</tspan></text>
          </g>
          <g class="cls-10">
            <text class="cls-4" transform="translate(476.1 366.4)"><tspan x="0" y="0">Social Media User Accounts</tspan></text>
            <text class="cls-7" transform="translate(595.2 382.4)"><tspan x="0" y="0">4.2 billion</tspan></text>
          </g>
          <g class="cls-10">
            <text class="cls-4" transform="translate(662.6 513.8)"><tspan x="0" y="0">No Social Media Account</tspan></text>
            <text class="cls-7" transform="translate(662.6 525.8)"><tspan x="0" y="0">585.9 million</tspan></text>
          </g>
          <g class="cls-10">
            <text class="cls-4" transform="translate(923.7 493)"><tspan x="0" y="0">Twitter User Accounts</tspan></text>
            <text class="cls-7" transform="translate(924.7 509)"><tspan x="0" y="0">353.1 million</tspan></text>
          </g>
          <g class="cls-10">
            <text class="cls-4" transform="translate(791 364.4)"><tspan x="0" y="0">No Twitter Account</tspan></text>
            <text class="cls-7" transform="translate(856.2 380.4)"><tspan x="0" y="0">3.8 billion</tspan></text>
          </g>
        </g>
      </g>
    </g>
    <g id="Isolation_Mode" data-name="Isolation Mode">
      <text class="cls-1" transform="translate(887.9 642.4)"><tspan x="0" y="0">Numbers are rounded to the nearest 10th.</tspan><tspan x="-131.7" y="12">Data are based on statistics from Statista, Kepios, and The World Bank.</tspan></text>
      <text class="cls-11" transform="translate(198.5 45)"><tspan x="0" y="0">Estimating the World Population Online, on Social Media, and on Twitter in 2021</tspan></text>
    </g>
  </g>
</svg>